<?xml version="1.0" encoding="UTF-8"?>
<svg xmlns="http://www.w3.org/2000/svg" width="50" height="50">
  <path id="mask-topleft" d="M5,0 A5,5 0 0 0 0,5 L5,5 Z" fill="#ffffff"/>
  <rect id="mask-top" x="5" width="40" height="5" fill="#ffffff"/>
  <path id="mask-topright" d="M45,0 A5,5 0 0 1 50,5 L45,5 Z" fill="#ffffff"/>
  <rect id="mask-left" y="5" width="5" height="40" fill="#ffffff"/>
  <rect id="mask-center" x="5" y="5" width="40" height="40" fill="#ffffff"/>
  <rect id="mask-right" x="45" y="5" width="5" height="40" fill="#ffffff"/>
  <path id="mask-bottomleft" d="M0,45 A5,5 0 0 0 5,50 L5,45 Z" fill="#ffffff"/>
  <rect id="mask-bottom" x="5" y="45" width="40" height="5" fill="#ffffff"/>
  <path id="mask-bottomright" d="M50,45 A5,5 0 0 0 45,50 L45,45 Z" fill="#ffffff"/>
</svg>
